<?xml version="1.0" standalone="no"?>
<!DOCTYPE svg PUBLIC "-//W3C//DTD SVG 20010904//EN"
 "http://www.w3.org/TR/2001/REC-SVG-20010904/DTD/svg10.dtd">
<svg version="1.0" xmlns="http://www.w3.org/2000/svg"
 width="500.000000pt" height="500.000000pt" viewBox="0 0 500.000000 500.000000"
 preserveAspectRatio="xMidYMid meet">
<metadata>
Created by potrace 1.14, written by Peter Selinger 2001-2017
</metadata>
<g transform="translate(0.000000,500.000000) scale(0.100000,-0.100000)"
fill="#000000" stroke="none">
<path d="M2525 4872 c-11 -3 -23 -8 -26 -13 -3 -5 -29 -12 -58 -15 -29 -2 -60
-11 -68 -19 -8 -8 -20 -15 -27 -15 -7 0 -19 -11 -26 -25 -18 -33 -50 -34 -50
-1 0 13 4 26 9 28 5 2 11 14 14 28 2 14 2 19 0 13 -3 -7 -10 -13 -17 -13 -7 0
-21 -17 -32 -37 -10 -21 -26 -46 -35 -56 -9 -9 -21 -35 -28 -57 -6 -22 -15
-40 -20 -40 -8 0 -36 -85 -47 -142 -3 -21 -9 -38 -13 -38 -9 0 -51 -95 -51
-115 0 -8 -6 -15 -13 -15 -6 0 -22 -22 -35 -50 -13 -27 -30 -50 -37 -50 -8 0
-15 -7 -15 -16 0 -12 6 -15 21 -11 20 5 21 3 17 -50 -3 -30 -10 -58 -16 -62
-6 -3 -16 -28 -22 -54 -10 -48 -25 -80 -47 -105 -7 -7 -13 -19 -13 -25 -1 -7
-8 0 -16 16 -16 29 -34 36 -34 12 0 -8 5 -15 10 -15 6 0 10 -7 10 -15 0 -8 -9
-15 -19 -15 -11 0 -26 7 -35 15 -8 8 -22 15 -30 15 -9 0 -16 5 -16 10 0 6 -16
10 -35 10 -19 0 -35 -4 -35 -10 0 -5 -11 -10 -25 -10 -30 0 -33 -17 -4 -22 20
-3 18 -7 -20 -45 -22 -24 -44 -43 -49 -43 -4 0 -15 -8 -24 -17 -9 -10 -23 -23
-30 -29 -7 -7 -31 -33 -53 -59 -22 -25 -50 -58 -62 -72 -13 -14 -23 -32 -23
-39 0 -8 -4 -14 -9 -14 -5 0 -12 -13 -16 -30 -4 -16 -11 -30 -16 -30 -5 0 -9
-10 -9 -22 0 -28 -48 -170 -59 -178 -10 -6 -51 -94 -51 -109 0 -6 -4 -11 -9
-11 -15 0 -44 -100 -48 -164 -1 -33 -7 -62 -11 -65 -8 -5 -25 -83 -49 -216 -3
-16 -9 -32 -13 -35 -6 -4 -32 -115 -47 -202 -3 -16 -9 -28 -13 -28 -4 0 -11
-24 -14 -52 -4 -29 -11 -57 -15 -63 -4 -5 -14 -37 -21 -70 -8 -33 -18 -63 -22
-66 -5 -3 -13 -32 -18 -65 -11 -63 -12 -98 -3 -77 12 30 31 -18 38 -95 4 -45
11 -82 16 -82 5 0 9 11 9 25 0 14 5 25 10 25 6 0 10 -7 10 -15 0 -8 5 -15 10
-15 6 0 10 -12 10 -28 l0 -27 -82 -2 c-49 -1 -84 -6 -86 -12 -2 -6 -10 -11
-19 -11 -18 0 -44 -25 -35 -34 7 -8 -27 -76 -39 -76 -9 0 -49 -82 -49 -101 0
-12 2 -12 11 1 7 11 8 -11 2 -75 -11 -124 -8 -258 6 -263 6 -2 11 -28 11 -60
0 -31 3 -67 6 -79 7 -26 24 -31 24 -7 0 25 18 6 31 -34 6 -20 18 -41 25 -45 8
-4 14 -19 14 -32 0 -13 7 -30 15 -39 8 -8 15 -20 15 -26 0 -6 9 -20 20 -32
l19 -21 25 24 c14 13 28 38 32 54 9 50 29 67 81 72 40 4 52 1 74 -19 15 -12
32 -33 38 -45 6 -13 18 -23 25 -23 7 0 19 -11 26 -25 7 -14 17 -25 22 -25 4 0
8 -6 8 -14 0 -8 10 -16 23 -20 13 -3 29 -17 37 -31 7 -14 19 -25 27 -25 7 0
19 -11 25 -25 6 -14 17 -25 25 -25 7 0 13 -9 13 -20 0 -11 -6 -20 -14 -20 -8
0 -16 -5 -18 -11 -2 -6 -27 -14 -56 -17 -52 -5 -53 -4 -97 42 -25 25 -45 53
-45 61 0 8 -4 15 -10 15 -5 0 -10 7 -10 15 0 8 -4 15 -8 15 -5 0 -15 19 -22
43 -7 23 -15 36 -17 30 -3 -7 -11 -13 -19 -13 -8 0 -14 -4 -14 -10 0 -5 -27
-37 -61 -71 -46 -46 -68 -61 -91 -61 -33 -1 -48 14 -48 50 0 38 -21 48 -104
55 -49 3 -82 11 -87 19 -6 8 -9 9 -9 1 0 -17 87 -103 105 -103 8 0 15 -4 15
-9 0 -5 11 -12 25 -15 21 -5 25 -12 25 -46 l0 -40 -45 0 c-25 0 -45 4 -45 9 0
4 -25 11 -57 15 -35 4 -61 13 -69 24 -12 15 -13 13 -14 -20 0 -28 4 -38 16
-38 8 0 23 -7 31 -16 13 -13 14 -20 5 -35 -21 -32 -14 -48 23 -55 19 -3 35
-10 35 -15 0 -5 13 -9 29 -9 50 0 61 -9 61 -51 0 -21 -4 -39 -10 -39 -5 0 -10
6 -10 13 0 8 -3 7 -10 -3 -7 -12 -29 -15 -100 -14 -78 2 -90 0 -90 -15 0 -9 9
-23 20 -31 11 -8 20 -18 20 -22 0 -16 35 -48 52 -48 10 0 18 -4 18 -9 0 -6 20
-13 45 -16 47 -8 62 -27 50 -64 -7 -23 -66 -35 -139 -29 -42 3 -46 1 -46 -19
0 -49 7 -53 100 -53 85 0 88 1 94 25 5 20 13 25 36 25 17 0 30 4 30 9 0 5 25
12 55 16 30 3 55 10 55 14 0 5 28 11 61 14 34 3 65 10 68 15 3 6 34 14 69 18
34 3 62 10 62 15 0 5 23 11 50 15 28 4 50 10 50 15 0 4 17 9 38 11 l37 3 7
125 c4 69 5 188 2 265 -4 116 -2 143 11 159 15 20 15 20 29 1 8 -11 17 -36 20
-56 7 -43 51 -97 60 -73 3 9 6 38 6 65 0 56 22 77 46 43 8 -10 22 -28 32 -39
10 -11 28 -37 41 -57 37 -61 51 -50 44 32 -4 49 -3 70 6 70 6 0 11 -4 11 -9 0
-5 10 -13 22 -16 11 -4 31 -18 43 -31 38 -41 45 -31 45 67 l0 91 33 -7 c17 -4
36 -14 40 -21 4 -8 14 -14 21 -14 14 0 56 -90 56 -119 0 -11 6 -26 13 -33 8
-7 24 -45 36 -83 13 -39 28 -73 34 -77 6 -4 16 -24 22 -45 l11 -38 89 -3 c66
-2 92 -7 98 -17 4 -8 14 -15 21 -15 7 0 19 -11 26 -25 7 -14 21 -25 31 -25 10
0 23 -9 29 -20 6 -12 21 -20 35 -20 14 0 25 -4 25 -10 0 -5 9 -10 21 -10 11 0
28 -7 37 -16 13 -13 29 -15 81 -11 36 3 67 10 69 16 2 6 15 11 28 11 20 0 26
7 36 45 l12 45 81 0 c118 0 121 -2 146 -78 12 -37 28 -73 36 -80 7 -8 20 -29
28 -48 8 -19 19 -34 24 -34 6 0 11 -6 11 -14 0 -8 6 -21 14 -28 7 -8 16 -24
20 -35 4 -12 16 -25 27 -28 10 -4 19 -11 19 -16 0 -5 11 -9 25 -9 14 0 33 -9
42 -20 10 -11 21 -20 26 -20 5 0 15 -7 24 -15 19 -19 50 -11 80 21 12 13 26
24 30 24 5 0 16 9 26 20 9 11 24 20 32 20 8 0 15 5 15 11 0 12 25 39 36 39 4
0 17 11 30 25 13 14 31 25 41 25 11 0 24 13 31 30 19 42 32 37 33 -12 1 -35 3
-38 8 -18 16 55 34 90 47 90 7 0 24 18 36 40 13 22 29 40 36 40 7 0 15 7 18
15 3 8 15 17 26 21 12 3 31 16 42 29 12 12 31 25 44 29 12 4 22 12 22 17 0 5
6 9 13 9 13 0 67 56 67 70 0 5 9 12 20 15 11 3 20 10 20 15 0 6 16 26 35 46
19 19 35 40 35 45 0 5 7 9 15 9 8 0 15 -8 15 -17 0 -15 4 -13 20 7 11 14 20
31 20 38 0 6 4 12 8 12 5 0 19 24 32 53 13 28 26 54 30 57 3 3 14 23 22 45 14
33 20 40 41 37 23 -2 26 3 41 69 9 39 16 84 16 100 0 16 5 29 10 29 6 0 10 45
10 115 0 70 -4 115 -10 115 -5 0 -10 10 -10 23 0 35 -41 149 -62 171 -10 11
-21 29 -24 40 -7 21 -24 39 -64 66 -12 8 -29 22 -38 30 -12 11 -41 15 -118 15
l-103 0 16 25 c9 14 24 33 33 42 10 9 21 23 24 30 5 10 7 10 12 1 11 -24 30
-13 48 28 11 23 27 44 39 47 18 5 19 10 13 96 -4 50 -11 93 -15 96 -4 3 -11
25 -15 50 -11 72 -39 185 -48 190 -4 4 -18 55 -30 115 -12 61 -26 113 -31 116
-7 5 -38 112 -55 189 -3 14 -9 27 -13 30 -12 8 -49 157 -49 197 0 17 -4 33 -8
35 -4 2 -18 32 -31 68 -13 36 -27 67 -31 70 -9 7 -50 94 -50 108 0 7 -4 12 -8
12 -15 0 -52 100 -52 140 0 22 -4 40 -9 40 -4 0 -21 29 -36 65 -16 35 -34 66
-42 69 -7 3 -13 10 -13 16 0 15 -62 81 -192 207 -23 22 -23 34 2 40 11 3 20
14 20 24 0 17 -8 19 -60 19 -33 0 -60 -4 -60 -10 0 -5 -7 -10 -15 -10 -8 0
-15 -4 -15 -9 0 -5 -15 -12 -34 -15 -19 -4 -37 -13 -40 -21 -7 -20 -36 -19
-36 0 0 8 7 15 15 15 22 0 19 47 -3 52 -10 3 -24 23 -32 47 -7 22 -16 41 -20
41 -9 0 -24 79 -41 208 -6 50 -16 92 -20 92 -5 0 -9 10 -9 21 0 24 -37 89 -50
89 -5 0 -14 17 -21 38 -6 20 -15 42 -19 47 -16 23 -18 55 -3 55 8 0 13 3 11 8
-2 4 -10 20 -18 35 -18 38 -4 47 73 47 31 0 57 5 57 10 0 6 -6 10 -13 10 -8 0
-24 9 -37 20 -13 11 -31 20 -42 20 -10 0 -18 5 -18 10 0 6 -13 10 -29 10 -16
0 -31 4 -33 10 -1 5 -31 13 -65 16 -35 4 -63 11 -63 15 0 5 -12 9 -27 9 -34 0
-65 19 -45 27 7 2 18 10 25 17 7 7 19 16 27 19 8 4 -16 4 -55 1 -38 -3 -72
-10 -75 -14 -3 -5 -29 -12 -57 -16 -45 -6 -52 -4 -55 13 -2 12 -9 17 -23 15z
m55 -502 c0 -5 14 -10 30 -10 17 0 30 -4 30 -9 0 -4 21 -11 46 -14 26 -2 50
-11 55 -18 7 -12 9 -11 9 1 0 9 3 11 8 4 4 -6 15 -13 25 -17 9 -3 17 -17 17
-29 1 -30 26 -65 33 -46 11 27 27 -17 27 -74 0 -47 -4 -61 -22 -78 -20 -19
-21 -23 -8 -33 26 -20 60 -74 60 -95 0 -11 6 -22 13 -24 8 -3 13 -37 15 -111
3 -91 1 -108 -12 -113 -9 -3 -16 -12 -16 -20 0 -21 -43 -62 -73 -69 -15 -4
-27 -14 -27 -22 0 -19 43 -113 52 -113 3 0 16 -20 28 -44 11 -24 27 -47 35
-49 20 -8 38 -113 32 -182 -9 -87 -23 -122 -55 -130 -15 -4 -30 -11 -33 -17
-4 -6 -41 -12 -84 -13 -49 -1 -79 -6 -84 -14 -5 -7 -40 -14 -89 -17 -67 -3
-82 -1 -82 10 0 10 -13 16 -37 18 -35 3 -38 5 -35 30 3 31 -8 41 -28 27 -12
-8 -12 -12 -2 -16 18 -7 16 -63 -3 -63 -9 0 -15 9 -15 25 0 16 -6 25 -15 25
-8 0 -15 -4 -15 -10 0 -5 -16 -10 -35 -10 -19 0 -35 4 -35 9 0 6 -20 13 -45
16 -49 8 -49 8 -64 101 -12 77 10 179 44 209 7 6 18 26 25 45 8 19 24 46 37
59 13 13 23 32 23 43 0 10 7 21 15 24 8 4 15 12 15 20 0 8 5 14 10 14 6 0 10
5 10 10 0 6 -19 10 -41 10 -35 0 -48 6 -77 36 -29 30 -36 45 -42 97 -7 60 5
197 18 207 4 3 13 17 21 32 8 15 22 36 32 47 13 14 15 21 6 25 -9 5 -9 7 1 12
14 7 16 34 2 34 -5 0 -10 7 -10 15 0 8 5 15 10 15 6 0 10 16 10 36 0 37 31
116 38 96 5 -15 21 1 41 41 9 17 22 27 37 27 12 0 29 7 38 15 9 9 34 15 65 15
28 0 51 5 51 10 0 6 5 10 10 10 6 0 10 -4 10 -10z m-650 -470 c0 -22 -4 -28
-15 -24 -18 7 -19 20 -2 39 17 19 17 19 17 -15z m1303 -128 c34 -78 21 -168
-33 -222 -21 -21 -40 -3 -40 40 0 16 -4 30 -10 30 -5 0 -10 14 -10 30 0 34 15
40 23 9 4 -13 10 -18 18 -14 8 5 10 32 7 86 -4 68 -2 79 12 79 9 0 23 -16 33
-38z m-1311 -54 c2 -56 6 -72 17 -70 11 2 13 -7 9 -43 -3 -25 -8 -48 -10 -51
-9 -9 -38 8 -38 22 0 8 -4 14 -10 14 -6 0 -10 31 -10 74 0 131 37 178 42 54z
m818 -688 c0 -5 -7 -10 -15 -10 -8 0 -15 5 -15 10 0 6 7 10 15 10 8 0 15 -4
15 -10z m-233 -1947 c-3 -38 -4 -62 -1 -55 3 6 14 12 25 12 10 0 19 5 19 10 0
15 19 12 36 -4 16 -17 19 -36 4 -36 -6 0 -10 -35 -10 -85 0 -50 4 -85 10 -85
6 0 10 -18 10 -40 0 -22 -4 -40 -10 -40 -5 0 -10 -21 -10 -47 -1 -27 -7 -86
-13 -133 l-13 -85 -43 1 c-25 0 -47 7 -52 15 -11 16 -3 100 10 108 5 4 12 24
16 46 4 22 14 63 22 92 19 70 14 167 -9 171 -11 2 -18 -3 -18 -12 0 -9 -4 -16
-8 -16 -5 0 -13 -48 -20 -107 -15 -146 -30 -213 -48 -213 -8 0 -14 -6 -14 -12
0 -9 -4 -8 -10 2 -7 11 -10 12 -10 2 0 -10 -4 -10 -16 2 -8 9 -20 16 -25 16
-18 0 0 126 21 140 11 7 52 224 48 256 -4 38 -25 41 -33 5 -4 -17 -10 -31 -13
-31 -4 0 -16 -28 -26 -62 -25 -84 -39 -118 -48 -118 -5 0 -8 -7 -8 -15 0 -10
-10 -15 -27 -15 -56 0 -71 34 -46 97 10 23 21 43 25 43 3 0 16 20 28 45 12 25
26 45 31 45 5 0 9 4 9 10 0 16 54 100 65 100 6 0 18 9 28 20 12 15 29 20 62
20 25 0 45 5 45 10 0 6 5 10 11 10 8 0 10 -20 6 -67z m723 -2 c0 -5 13 -12 29
-16 33 -7 42 -23 34 -54 -4 -16 -1 -21 15 -21 12 0 36 -16 55 -35 19 -19 38
-35 44 -35 5 0 16 -18 23 -40 7 -22 19 -40 27 -40 12 0 17 -12 14 -32 -3 -24
41 -393 48 -397 4 -3 11 -23 15 -43 5 -29 4 -38 -7 -38 -7 0 -24 -13 -37 -30
-14 -16 -30 -29 -35 -30 -13 0 -45 -37 -45 -51 0 -6 -9 -9 -20 -6 -13 3 -20 0
-20 -9 0 -8 -4 -14 -10 -14 -5 0 -10 5 -10 10 0 14 -28 12 -33 -2 -8 -22 -19
-1 -12 22 9 27 76 96 102 104 11 4 26 18 33 31 7 14 17 25 22 25 4 0 8 14 8
30 0 28 -2 30 -37 30 -30 -1 -44 -8 -63 -30 -13 -17 -30 -30 -38 -30 -16 0
-42 -24 -42 -39 0 -6 -9 -11 -19 -11 -11 0 -27 -7 -36 -16 -9 -9 -36 -19 -60
-22 -42 -4 -45 -3 -55 24 -12 31 0 74 21 74 7 0 22 11 35 25 13 14 30 25 39
25 8 0 15 4 15 9 0 5 10 13 22 17 12 3 28 12 35 18 33 29 43 36 67 42 16 4 28
15 32 30 3 13 10 24 15 24 15 0 10 19 -11 40 -22 22 -40 26 -40 10 0 -5 -9
-10 -19 -10 -11 0 -26 -6 -33 -14 -8 -7 -23 -16 -35 -20 -12 -4 -24 -13 -27
-21 -3 -8 -12 -15 -21 -15 -8 0 -15 -4 -15 -9 0 -5 -12 -12 -26 -15 -14 -4
-31 -11 -37 -17 -66 -55 -60 -52 -94 -43 -46 13 -53 124 -8 124 8 0 15 4 15 9
0 5 12 12 27 16 15 3 34 15 43 25 9 10 28 22 43 25 15 4 27 11 27 15 0 5 14
11 30 15 17 4 30 11 30 16 0 5 8 9 18 9 26 0 54 37 50 68 -2 22 -9 28 -34 30
-17 2 -38 -3 -45 -11 -8 -7 -27 -17 -42 -21 -15 -3 -27 -11 -27 -16 0 -6 -9
-10 -19 -10 -11 0 -26 -7 -35 -15 -8 -8 -21 -15 -30 -15 -8 0 -21 -6 -28 -13
-7 -8 -26 -17 -41 -21 -15 -3 -27 -11 -27 -17 0 -5 -11 2 -25 17 -21 23 -25
36 -23 73 3 39 6 46 26 49 12 2 22 8 22 13 0 5 7 9 15 9 8 0 15 5 15 10 0 6 7
10 15 10 8 0 21 16 29 35 8 19 19 35 24 35 5 0 15 18 22 40 15 47 78 120 103
120 9 0 17 -4 17 -9z m-524 -211 c23 0 24 -2 25 -77 0 -43 4 -118 8 -168 9
-97 1 -125 -34 -125 -39 0 -45 29 -45 229 1 104 4 192 8 196 4 4 8 -7 10 -24
3 -25 8 -31 28 -31z m-1446 -271 c0 -5 11 -9 24 -9 29 0 38 -12 46 -60 6 -38
-12 -70 -40 -70 -9 0 -22 -9 -30 -19 -10 -15 -31 -21 -87 -26 -40 -4 -73 -11
-73 -16 0 -5 -25 -9 -55 -9 -30 0 -55 5 -55 10 0 6 -9 10 -20 10 -27 0 -34 20
-21 66 10 38 40 74 61 74 6 0 13 7 16 15 3 8 26 17 50 21 24 3 44 10 44 14 0
12 25 15 86 12 30 -2 54 -8 54 -13z"/>
<path d="M2308 3959 c-10 -10 -18 -26 -18 -34 0 -8 -4 -15 -10 -15 -6 0 -10
-27 -10 -60 0 -33 4 -60 9 -60 6 0 18 -13 28 -30 15 -26 23 -30 60 -30 46 0
75 20 88 59 3 12 11 21 16 21 12 0 12 87 -1 103 -50 62 -57 67 -101 66 -30 0
-50 -7 -61 -20z m86 -25 c8 -22 -4 -66 -18 -61 -18 6 -20 77 -3 77 8 0 18 -7
21 -16z"/>
<path d="M2674 3930 c-10 -27 -22 -50 -26 -50 -4 0 -8 -13 -8 -30 0 -16 5 -30
10 -30 6 0 10 -5 10 -10 0 -6 10 -26 23 -45 20 -31 27 -35 68 -35 39 0 48 4
59 25 7 14 19 25 26 25 16 0 29 79 20 116 -4 15 -20 39 -36 55 -24 24 -37 29
-78 29 l-50 0 -18 -50z m102 6 c18 -19 18 -23 -6 -48 -17 -19 -20 -19 -26 -5
-6 18 2 67 12 67 3 0 12 -6 20 -14z"/>
<path d="M2520 3946 c0 -9 5 -16 10 -16 6 0 10 -11 10 -25 0 -14 -4 -25 -9
-25 -4 0 -11 -27 -15 -60 -4 -33 -11 -62 -16 -65 -19 -12 -10 -43 13 -48 23
-6 97 0 106 9 3 2 0 25 -7 49 -7 25 -12 54 -12 65 0 11 -4 20 -9 20 -6 0 -11
24 -13 53 -3 48 -5 52 -30 55 -20 2 -28 -1 -28 -12z"/>
<path d="M2447 3673 c-12 -12 -7 -54 8 -69 17 -18 96 -24 102 -8 2 5 -6 19
-17 30 -11 10 -28 27 -38 37 -17 17 -43 22 -55 10z"/>
<path d="M2627 3660 c-9 -11 -23 -20 -31 -20 -16 0 -29 -41 -17 -53 10 -10 81
2 81 14 0 5 7 9 15 9 17 0 20 23 5 51 -14 24 -31 24 -53 -1z"/>
<path d="M2518 3353 c-16 -2 -28 -9 -28 -14 0 -5 -9 -9 -19 -9 -10 0 -21 -7
-25 -15 -3 -8 -14 -15 -25 -15 -11 0 -21 -5 -23 -12 -5 -15 -121 -14 -126 1
-5 16 -29 13 -36 -5 -10 -26 -7 -34 13 -34 11 0 26 -6 33 -13 9 -9 51 -16 118
-20 61 -3 106 -10 108 -16 4 -13 102 -15 102 -2 0 5 18 11 40 15 22 3 40 11
40 16 0 6 11 10 25 10 14 0 25 -4 25 -10 0 -16 99 -12 116 5 9 8 26 15 40 15
15 0 24 6 24 15 0 8 -6 15 -14 15 -8 0 -16 7 -20 15 -7 19 -26 20 -26 0 0 -18
-58 -30 -106 -22 -20 3 -46 18 -59 32 -13 14 -31 25 -39 25 -8 0 -16 4 -18 9
-4 10 -83 20 -120 14z"/>
<path d="M2677 3103 c-25 -25 11 -44 43 -23 13 9 13 11 0 20 -18 11 -34 13
-43 3z"/>
<path d="M1923 770 c-3 -11 -12 -20 -20 -20 -13 0 -14 -8 -9 -42 4 -24 11 -44
16 -46 6 -2 10 -9 10 -16 0 -18 24 -66 33 -66 4 0 7 -6 7 -14 0 -8 5 -16 11
-18 6 -2 15 -43 20 -91 10 -96 2 -121 -38 -132 -13 -3 -23 -10 -23 -15 0 -6
-7 -10 -15 -10 -8 0 -15 5 -15 10 0 6 -6 10 -14 10 -8 0 -15 16 -19 41 -3 23
-9 45 -14 48 -11 8 -33 160 -33 228 0 69 -7 83 -41 83 -37 0 -44 -26 -36 -129
5 -66 25 -150 26 -113 1 6 8 12 16 12 22 0 20 -66 -1 -74 -13 -5 -15 -15 -11
-42 7 -42 -15 -84 -43 -84 -10 0 -20 -6 -22 -12 -3 -9 -9 -8 -21 4 -9 9 -21
18 -27 20 -16 5 -30 104 -30 216 0 57 -5 122 -12 143 -10 34 -15 39 -41 39
l-30 0 7 -102 c4 -57 8 -111 9 -120 1 -10 5 -18 10 -18 26 0 40 -35 45 -116 6
-105 19 -124 86 -124 25 0 46 5 46 10 0 6 5 10 11 10 6 0 17 7 25 15 19 19 33
19 40 0 7 -16 94 -22 94 -6 0 5 12 12 26 15 33 9 48 24 61 61 9 27 14 30 56
33 26 2 47 7 47 12 0 5 13 11 28 15 52 11 80 105 31 105 -11 0 -19 -5 -19 -11
0 -19 -28 -39 -54 -39 -19 0 -27 7 -32 25 -3 14 -12 29 -19 33 -15 8 -65 205
-65 257 0 31 -3 35 -26 35 -17 0 -28 -6 -31 -20z"/>
<path d="M1568 392 c2 -18 -4 -35 -18 -50 -17 -18 -27 -21 -60 -16 -35 6 -40
4 -40 -12 0 -32 17 -48 52 -48 53 0 78 29 78 91 0 28 -4 54 -8 57 -5 3 -7 -7
-4 -22z"/>
</g>
</svg>
